<svg aria-hidden="true" style="position: absolute; width: 0; height: 0; overflow: hidden;" version="1.1" xmlns="http://www.w3.org/2000/svg" xmlns:xlink="http://www.w3.org/1999/xlink">
<defs>

<symbol id="icon-icons8-search-1" viewBox="0 0 32 32">
<path d="M13.867 3.2c-5.878 0-10.667 4.788-10.667 10.667s4.788 10.667 10.667 10.667c0.001 0 0.003 0 0.005 0 2.567 0 4.922-0.912 6.757-2.429l-0.018 0.014 6.369 6.369c0.194 0.201 0.466 0.326 0.767 0.326 0.589 0 1.067-0.478 1.067-1.067 0-0.301-0.125-0.573-0.325-0.767l-0-0-6.368-6.368c1.502-1.817 2.414-4.171 2.414-6.738 0-0.002 0-0.005 0-0.007v0c0-5.878-4.788-10.667-10.667-10.667zM13.867 5.333c4.725 0 8.533 3.808 8.533 8.533s-3.808 8.533-8.533 8.533-8.533-3.808-8.533-8.533 3.808-8.533 8.533-8.533z"></path>
</symbol>
</svg>
